<svg width="205" height="204" viewBox="0 0 205 204" xmlns="http://www.w3.org/2000/svg"><title>logo</title><g fill="none" fill-rule="evenodd"><ellipse fill="#FFF" cx="102.5" cy="102" rx="102.5" ry="102"/><path d="M197 103.5c0 52.191-42.532 94.5-95 94.5-52.467 0-95-42.309-95-94.5S49.533 9 102 9c52.468 0 95 42.309 95 94.5" fill="#476F89"/><path d="M198 102.5c0 52.191-42.532 94.5-95 94.5-52.467 0-95-42.309-95-94.5S50.533 8 103 8c52.468 0 95 42.309 95 94.5z" stroke="#202020" stroke-width="4"/><path d="M175 103c0 40.317-32.907 73-73.5 73S28 143.317 28 103s32.907-73 73.5-73S175 62.683 175 103" fill="#A8AAAD"/><path d="M106.869 75.203a29.853 29.853 0 0 1-.236-.147l-.742 1.292c.062.035.124.07.184.106l.794-1.251zm-6.86 14.956c-.697-.225-1.836.047-2.051.47l2.051-.47zm7.946-16.479l-.804 1.828 1.318-1.16-.518-.665.425-1.057c-.862.385-2.628 2.546-2.84 3.665.248-.4.381-.674.57-.902.54-.654.88-1.53 1.85-1.709zm28.837-28.03c.203-.144.41-.282.607-.432.274-.207.489-.246.59.165.016.068.064.158.12.181.887.376.904.414.526 1.3-.023.054-.03.115-.064.24h.592c.289.611.208 1.122-.42 1.276-.966.236-.981.953-1.151 1.663-.138.57-.346 1.125-.523 1.685-1 .177-.698 1.066-.927 1.67-.086.227-.24.429-.372.66-.915-.958-1.504-2.008-.99-3.42a7.18 7.18 0 0 0-.211-.02l-.346.565c-.5-.282-.483-1.368-1.519-1.162l-.448-.841.16-.096-.53-.46c-.217 1.106.091 1.683.962 1.77.182.727.182.727-.513 1.313.208 1.065.552 2.106.56 3.149.004.583.09 1.225-.162 1.87-.18.459.001 1.17.25 1.651.248.481.412.877.205 1.386-.026.064.024.158.056.328.215-.09.425-.127.566-.244.456-.377.632-.074.76.297.079.232.034.522.154.721.182.303.428.588.705.807.253.198.607.268.868.458.083.061.089.4.003.487-.297.302-.649.55-.985.823.012.068.004.164.036.18.671.34 1.32.774 2.033.962.352.092.443.249.489.468.033.16-.057.444-.183.516-.156.089-.43.075-.61 0-.312-.13-.595-.335-.886-.519-.692-.435-1.418-.826-2.06-1.327-.998-.781-2.017-.557-3.066-.21-.423.14-.842.288-1.343.46l-.183 1.513c-.197-.06-.326-.109-.46-.142-1.027-.257-1.404-.716-1.435-1.792-.017-.555-.003-1.111-.152-1.714l-.926 2.204-.246.264-.216-.67c-.53.9.682 1.28.38 2.102l-2.104.364-.608-2.131c-.714.086-1.459.235-2.067-.439.112.302.217.607.34.905.294.712-.045 1.792-.727 2.094-.198.088-.557.034-.738-.097-.468-.34-.91-.414-1.455-.206-.185.07-.557.008-.664-.13-.872-1.13-1.355-1.282-2.729-.712-.398.166-.737.346-.98.824-.283.554-.893.942-1.357 1.405-.116.115-.295.226-.321.362-.162.869-.772 1.444-1.296 2.084-.18.222-.26.54-.464.728-.387.354-.839.909-1.25.897-.567-.016-.808.28-1.207.52.299.154.536.317.799.395.15.044.407.01.502-.093.804-.86 1.615-1.719 2.354-2.633.526-.652 1.105-.995 1.75-.763.242.087.43.32.657.498.057-.05.175-.158.295-.263.013-.011.04-.009.04-.009.402.276.806.525 1.176.818.128.101.284.367.237.46-.384.738.28 1.007.622 1.386.223.248.509.372.298.802-.08.163.09.45.155.708.219-.022.427-.024.627-.063.354-.07.521-.204.391-.641-.208-.7-.099-.822.633-.99.525-.12 1.051-.231 1.583-.31.147-.022.336.05.468.136 1.01.664 2.028 1.316 2.99 2.042.147.111.021.583.021.926l.503.62-.145.177c-.495-.578-1.003-.442-1.512-.082 1.13 2.129 2.165 2.328 3.825.711-.29-.18-.643-.305-.853-.55-.458-.535-.66-1.103-.452-1.894.174-.668-.036-1.436-.077-2.161-1.037.128-1.673-.131-1.806-.797-.038-.192.135-.528.31-.636.32-.199.731-.83.713-1.215-.01-.24.009-.553.152-.703.109-.115.433-.023.711-.023.137-.409.442-.582.987-.382.181.066.487-.054.673-.181.374-.258.689-.216.828.212.14.426.521.833.162 1.334-.026.035.105.24.205.293.172.093.375.13.454.155.193-.259.32-.592.553-.705.421-.204.386-.495.319-.83-.098-.485.138-.756.626-.803.185-.017.398-.17.52-.322.474-.587.658-.64 1.218-.206.842.653 1.804.843 2.846.831.404-.004.816.117 1.213.22.46.121.805.302.565.921-.169.434.176.597.56.59.432-.009.865-.06 1.298-.086.502-.028.784-.372.59-.827-.125-.296-.273-.551.075-.734.347-.182.777-.387 1.086.009.349.445.609.958.9 1.445.041.068.023.173.068.234.324.44.29.77-.328.928.075.166.105.318.195.413.758.808 1.123 1.827 1.61 2.791.419.83.927 1.665 1.96 2.18-.082-.326-.137-.545-.195-.764-.09-.337-.403-.692.128-.97.05-.027-.046-.369-.104-.555-.25-.814.107-1.775.875-2.239 1.212.95 2.445 1.903 3.66 2.877 2.005 1.605 3.985 3.24 6.005 4.826.465.365.37.853.462 1.292.11.525.105 1.074.141 1.614.049.736.029 1.449-.446 2.086-.21.28-.392.61-.478.945-.273 1.067-1.08 1.256-2.014 1.454-1.02.216-1.994.648-3 .99.158.753.327 1.35.398 1.957.139 1.173.326 2.355.306 3.53-.043 2.4.564 4.802-.106 7.212-.22.79-.017 1.689-.105 2.528-.102.979.498 1.792.54 2.73.017.405.012.749-.458.883-.436.124-.865.278-1.308.377-.998.224-1.484.814-1.512 1.828-.015.52-.036 1.021.294 1.477.094.13.066.347.099.542l-.862.195c.061-.281.108-.489.157-.711-.312.092-.63.188-.95.284l-.002-.137c-.265.225-.507.488-.8.666-.676.41-1.388.757-2.062 1.168-.605.369-1.192.767-1.168 1.619.006.178-.168.361-.114.481l.721 2.443c.622.133 1.285.343 1.96.395.357.027.744-.198 1.102-.346.508-.208.767-.034 1.01.442.288.563.703 1.062 1.047 1.598.13.204.295.431.31.657.041.636.014 1.277.014 1.896-.073.04-.112.077-.145.075-1.072-.105-1.996.19-2.789.939-.158.15-.463.19-.702.198-.734.025-1.472.055-2.202 0-1.594-.122-3.069.375-4.57.766-.82.214-1.67.318-2.482.557-1.306.384-2.585.862-3.887 1.26-2.473.757-4.787 1.866-7.052 3.093-.348.188-.654.496-1.021.602-2.585.74-4.889 2.242-7.55 2.757-.61.118-1.257.069-1.858.216-1.123.276-2.224.639-3.333.97-.828.246-1.655.5-2.51.761-.274-.875-.608-1.673-.075-2.5.067-.103.135-.25.232-.281.857-.272 1.723-.518 2.584-.78.566-.173 1.164-.29 1.68-.56.442-.231.79-.277 1.208-.012.707.449 2.024.092 2.52-.607.274-.382.639-.498 1.198-.524 1.047-.051 2.157.18 3.15-.595 1.312-1.022 2.767-1.86 4.152-2.79.466-.313.933-.325 1.484-.254 1.31.171 2.506-.208 3.609-.935.339-.223.761-.316 1.137-.486.497-.226.99-.462 1.478-.707.69-.347 1.192-.892 1.612-1.527.06-.09.214-.119.367-.197.11-.81.142-.832 1.048-.74.774.077 1.472-.046 1.995-.707.192-.242.447-.434.69-.667l.342.327c.05-.02.078-.02.085-.034.22-.423.459-.837.65-1.273.227-.514.862-.694 1.472-.385.345.174.47.742.199 1.128-.5.71-.223 1.324.174 1.955.621-.035.415-.502.425-.82.022-.671.007-1.344.007-2.095-.188-.263-.92-.23-.737-.873.062-.221.334-.384.503-.566l-.88-.314c.19-.664.415-1.354.567-2.059.03-.14-.183-.4-.347-.502-.714-.446-1.466-.833-2.18-1.28-.763-.479-1.488-1.02-2.251-1.501a274.2 274.2 0 0 0-4.73-2.922c-.177-.107-.448-.061-.755-.095.003.008-.04-.103-.1-.265-.438.452-.766.17-1.093-.23-.152.71-.603.643-1.074.554-.023.743-.462 1.036-1.21.893a2.284 2.284 0 0 0-1.154.1c-.394.142-.699.08-.86-.236-.137-.264-.137-.614-.14-.925-.001-.145.131-.292.208-.447-.187.015-.381.088-.527.032-.573-.221-.697.116-.736.554-.077.881-.609 1.188-1.472.86-.144-.054-.33-.003-.494-.002h-.925c.201.386.44.877.712 1.348.215.37.132.657-.223.821-.377.174-.581.801-.999.552-.314.135-.548.189-.722.32-.239.183-.535.388-.626.646-.233.667-.905.862-1.297 1.344-.079.096-.214.177-.237.284-.175.788-.26.85-1.074.719-.136-.022-.278-.003-.503-.003l2.064 3.371c-1.003.09-1.786.434-2.385 1.245l2.706-.236c.602 1.778 1.205 3.534 1.788 5.297.133.404-.39 1.304-.864 1.46-.885.289-1.774.578-2.683.761-.33.066-.767-.103-1.075-.293-.484-.3-.9-.709-1.383-1.104.1-.304.27-.483.63-.144.119.114.24.25.388.306.154.057.417.099.492.018.092-.1.095-.355.036-.504-.152-.381-.36-.74-.583-1.185l-2.262.782.3.918c-1.013.482-1.813-.161-2.675-.315-.465-.083-.868-.27-1.37-.016-.266.134-.683-.053-1.032-.059-.818-.013-1.636-.004-2.454-.004l-.016.192 3.24.263.318 1.559c-3.667.173-7.216.488-10.563 1.335-.357-.064-.615-.16-.867-.147-.824.04-1.652.205-2.466.151-.522-.033-1.023-.369-1.534-.567-.134-.051-.267-.105-.406-.14-.948-.227-1.3-1.276-.54-1.883.417-.333.969-.679 1.669-.487.999.275 2.03.428 3.07.603-.37-.259-1.096-.126-.977-.825-.293.03-.6.138-.865.072-.381-.093-1.149-.016-.599-.836.046-.068-.126-.28-.162-.355l.425-1.01-.182.162c-.114-.201-.257-.39-.337-.605-.428-1.152-1.478-1.695-2.422-2.223-.81-.452-1.817-.568-2.748-.782-.706-.161-1.186-.554-1.679-1.08-1.085-1.157-1.415-2.57-1.511-4.038-.05-.759.19-1.547.363-2.308.105-.459.355-.884.495-1.339.068-.218.033-.468.047-.79l.352-.056c-.07-.773.45-1.38 1.122-1.303-.418-.716.366-.857.576-1.322l.365.276.54-.887c-.036-.042-.144-.17-.24-.286.008-.066 0-.12.021-.145.372-.426.74-.855 1.125-1.268.15-.161.264-.48.596-.203.043.035.336-.1.37-.203.323-.982.886-1.214 1.802-.714l-.112-1.603c-.071.063-.188.15-.285.255-.098.107-.167.24-.265.346-.18.196-.34.443-.565.56-.855.44-1.401.085-1.442-.88-.014-.32-.098-.637-.15-.952.579-.01.434-.084.717 1.607.278-.134.634-.193.783-.4.305-.425-.001-.732-.346-1.01-.367-.296-.763-.59-1.028-.968-.52-.738-.421-1.166.276-1.73.301-.244.615-.473.971-.746l.09.585c.244-.162.587-.211.233-.568-.033-.033-.042-.137-.015-.177.253-.371.518-.734.777-1.101.068-.097.133-.197.184-.303.272-.557.648-1.093.77-1.682.09-.425.174-.81.46-1.118.433-.469.892-.914 1.358-1.35.094-.087.317-.165.4-.115.767.465 1.542-.094 2.326.035.546.09 1.122.434 1.127 1 .353-.367.34-.458.07-.828-.116-.16-.238-.494-.163-.583.188-.22.489-.345.862-.582.104-1.256.794-2.51 1.407-3.794.21-.438.42-.913.449-1.382.022-.371-.283-.75-.357-1.14-.23-1.228.051-2.403.646-3.454.633-1.116 1.422-2.144 2.14-3.213.088-.132.152-.281.186-.453l-2.548 3.101-.193-.144c.287-1.213 1.274-2.027 1.847-3.202-.19.11-.37.157-.456.274-.79 1.07-1.515 2.189-2.356 3.217-.874 1.072-.893 2.249-.744 3.52.23 1.962-.337 3.812-.918 5.652-.31.982-1.152 1.098-1.98 1.194-.706.082-1.43.037-2.124.164-.353.065-.706.334-.973.597-.368.363-.646.815-.984 1.21-.076.09-.28.183-.359.143-.519-.26-.407.125-.42.45-.408-.053-.84-.03-1.203-.174-.573-.229-1.026-1.227-.89-1.828.23-1.014.253-2.051.398-3.074.049-.337.252-.652.381-.98.03-.076.085-.178.059-.236-.316-.678.12-1.285.18-1.924.07-.718.261-1.423.345-2.14.086-.745.024-1.515.178-2.242.156-.734-.027-1.596.684-2.171.078-.063.028-.277.049-.419.023-.161 0-.382.097-.471.704-.653.819-1.625 1.327-2.383a45.04 45.04 0 0 0 1.273-2.05c.997-1.67 1.99-3.342 2.97-5.021.184-.316.51-.629.138-1.052-.082-.092-.012-.319-.012-.524l.68.036c.602-1.193 1.206-2.405 1.826-3.61.33-.637.585-1.357 1.062-1.863.412-.436.28-1.003.615-1.394.18-.209.432-.35.633-.544.128-.123.259-.27.322-.431.437-1.113.89-2.22 1.263-3.353.14-.421.077-.908.103-1.283l-1.341-.382-.206.328v-.68l1.161-.178-.154.564.12.087c.072-.102.144-.203.213-.306.117-.173.236-.346.349-.522.102-.16.237-.314.28-.489.049-.196.012-.413.012-.7l.437.195c1.072-1.296 1.67-2.83 2.06-4.47.18-.755.518-1.434 1.286-1.8.1-.049.157-.227.199-.356.52-1.653 1.054-3.301 1.541-4.964.429-1.462.802-2.94 1.217-4.478l10.027 3.858.51-.462c.324-.677.563-1.25.877-1.78.078-.13.401-.113.733-.195l-.409.91c1.077-.5 1.433.79 2.44.74.084.61.11 1.254.279 1.858.09.33.365.692.66.866.493.292 1.064.457 1.612.65.298.107.604.423.934.025.033-.042.198.005.293.037 1.86.637 3.72 1.277 5.58 1.919.057.02.108.057.198.106-.141.378-.281.755-.419 1.135-.079.229-.2.45-.23.683-.04.301-.026.58-.464.554-.083-.004-.194.178-.263.292-.287.47-.562.948-.86 1.457l.425.169c.477-.661.51-1.586 1.358-1.96.073-.032.107-.226.104-.343-.01-.29-.053-.58-.082-.87zm-79.799 69.932c.074-.394.09-.74-.434-.745-.383-.004-.572-.268-.58-.593-.025-1.08-.014-2.16-.006-3.24 0-.097.047-.207.107-.286.57-.75 1.124-1.51 1.728-2.232.279-.333.625-.636.997-.859a6.928 6.928 0 0 1 1.462-.636c.09-.029.292.292.484.495-.015.006.144-.01.195-.093.442-.715.708-.227 1.06.103.205.193.565.42.783.362.456-.12.755.102 1.1.26.527.244 1.039.528 1.582.728.172.064.423-.085.638-.133.463-.104.926-.205 1.389-.308.947-.211 1.843-.809 2.877-.386.093.038.218.05.274.118.451.55.795.12 1.205-.082.845-.415 1.687-.893 2.588-1.115.847-.209 1.777-.057 2.652-.185.551-.081 1.054-.448 1.605-.577.805-.187 1.633-.278 2.45-.01.02.006.056.015.056.021-.025.607.727.563.862 1.002.14.458.233.94.278 1.417.106 1.162.077 2.345.293 3.485.12.637.638 1.194.938 1.806.096.195.069.45.114.805.581.988.91 2.36 2.31 2.887-.43 1.101-.82 2.126-1.233 3.142-.081.197-.221.42-.398.52-.741.418-1.186 1.096-1.72 1.72-.792.93-1.733 1.731-2.592 2.606A48.442 48.442 0 0 0 78 127.782c-.452.523-.83 1.11-1.24 1.668-.024.033-.045.09-.075.095-1.032.175-.998 1.164-1.41 1.868-.581-.31-.823.092-1.089.495-.235.354-.315.929-.97.773-.032-.008-.085.022-.111.05-.7.743-1.699 1.141-2.231 2.101-.424.765-1.02 1.443-1.597 2.11-.16.184-.74.308-.764.264a4.07 4.07 0 0 1-.435-1.211c-.014-.075.425-.334.649-.326.866.027 1.036-.773 1.532-1.181.35-.29.298-.583.098-.922-.297-.5-.98-.72-1.495-.405-.552.337-.983.776-.949 1.512.028.603-.378 1.054-.97 1.247-.218.071-.457.23-.58.416-.585.887-1.419 1.385-2.413 1.688-.225.07-.459.243-.597.435-.343.475-.73.774-1.36.747-.208-.008-.432.2-.635.331-.41.264-.757.501-1.346.393-.34-.063-.851.357-1.164.677-.435.446-.743 1.01-1.13 1.506-.264.338-.556.54-.982.151-.688-.63-1.465-.377-2.22-.128a.395.395 0 0 0-.213.215 3.728 3.728 0 0 1-.957 1.452c-.353.333-.437.958-1.116.903-.496-.04-1.003-.007-1.489-.094-.8-.142-1.428.18-1.908.722-.65.735-1.459.706-2.29.627-.213-.02-.507-.168-.596-.341-.34-.666-.674-1.346-.89-2.057-.296-.974.644-2.697 1.594-3.085.102-.041.185-.127.28-.187.242-.156.486-.31.764-.485-.53-.798-.211-1.708-.015-2.617.132-.61.145-1.171-.487-1.562-.116-.072-.211-.335-.174-.472.163-.606-.14-1.024-.518-1.489.292-.538.477-1.16 1.343-1.216.326-.02.643-.41.937-.664.348-.3.72-.594.987-.96.498-.686 1.164-.68 1.886-.597a9.19 9.19 0 0 0 1.247.084c.37-.008.947-.84.94-1.399-.014-1.049.276-1.978.835-2.872.194-.308.085-.794.164-1.189.097-.492.254-.973.37-1.462.061-.258.185-.548.121-.78-.236-.859.249-1.44.69-2.055.214-.299.456-.597.584-.933.116-.304.116-.57-.123-.962-.34-.557-1.094-1.043-.781-1.917.092-.256-.028-.581.026-.86.053-.275.181-.738.316-.753.328-.035.818-.133.951.45z" stroke="#231F20" stroke-width="2"/><path d="M126.38 117.228c.138-.08.372-.138.397-.242.169-.694.293-1.398.438-2.136h.961l-.259.737c.268.34.606.527 1.082.168-.616-.664-.588-.818-.056-.96.228-.635.491-1.136.581-1.665.173-1.013 1.013-1.93.473-3.059-.117-.244-.018-.582-.018-1.063.43.367.685.62.978.822.186.129.429.184.645.273.079-.196.174-.389.23-.59.037-.136.02-.286.03-.513.178.083.386.119.408.2.174.629.344 1.262.45 1.903.072.445.002.927.642 1.117.021-.125.029-.182.041-.238l.175-.8c.271.151.678.242.787.464.315.643.56 1.303.43 2.073-.087.516.118 1.074.205 1.714-.639-.198-.632-.726-.818-1.082l-.31.597c-.098.187-.193.376-.29.563l.73.284c-.09.36-.349.814-.282 1.22.173 1.053-.757 1.789-.745 2.797.01.72-1.131 1.335-1.871 1.157-.29-.07-.626-.14-.9-.067-.379.102-.732.107-.753-.279-.013-.248.257-.62.506-.746.426-.215.982-.207 1.394-.437.271-.151.584-.6.527-.841-.123-.525.164-.835.381-1.146-.228-.173-.49-.291-.624-.488-.243-.355-.46-.653-.896-.88-.522-.275-.844-.365-1.171.167-.087.14-.225.251-.384.426l-.387-.577c-.113.481-.2.943-.33 1.395-.33 1.16-1.498 1.477-2.388.649-.162-.15-.261-.362-.389-.545l.38-.372zm10.307-2.702l1.114-2.225c-.768.318-1.19 1.204-1.114 2.225zm-1.367 1.935l.127-.405.495.287c.137-.334.276-.673.457-1.11-.619.284-.83.102-.856-.525-.018-.423-.219-.847-.377-1.254-.332-.854-.18-1.319.583-1.76a2.54 2.54 0 0 0 .497-.395c.398-.388.788-.387 1.232-.064.473.346.943.74 1.475.94.768.29.968.984 1.326 1.584.143.24.299.483.495.676.285.28.31.562.023.804-.772.652-1.566 1.276-2.352 1.908-.115.092-.249.16-.353.261-.589.57-1.52.794-2.196.377-.212-.132-.341-.674-.27-.967.104-.428-.147-.32-.324-.377l.018.02z" stroke="#231F20" stroke-width="2"/><path d="M124 114.718l.486-.587v-.704c-.84.004-.13-.632-.24-.792.283-.274.538-.498.768-.751.367-.401.777-.104 1.167-.132l.486-.035a12.85 12.85 0 0 1-.01-.22h-1.728c.278-.806.309-1.64 1.122-1.913.297-.1.577-.294.846-.483.312-.22.5-.047.725.193.225.24.33.455.145.779-.157.276-.327.546-.45.842-.09.215-.11.469-.16.705l-.104.47.947 1.223-3.85 1.687-.15-.282zm-6-45.844c.116-.482.226-.982.358-1.477.108-.401.567-.535.87-.23.365.368.814.507 1.283.695.775.31 1.477.808 1.489 1.917-1.469.312-2.88.498-4-.905zm22.614-13.898c.632.7.52 1.377-.577 2.024-.418-.592-.835-1.17-1.238-1.752a5.675 5.675 0 0 1-.468-.766c-.085-.18-.215-.451-.11-.567.571-.632.057-1.14-.176-1.712-.12-.295.026-.676.151-.995.042-.105.39-.14.599-.208.067.141.174.28.193.424.08.623.048 1.232 1.082 1.518.303.083.428.662.527 1.031.084.323.017.668.017 1.003z" stroke="#231F20" stroke-width="2"/><path d="M121 115.804c.226-.557.319-1.192.713-1.65.414-.482 1.109-.802 1.714-1.154.024-.013.556.38.57.596.029.474-.119.956-.204 1.433-.014.08-.054.204-.119.224-.849.258-1.705.5-2.559.747l-.115-.196zm1.59 6.552c-.46-.032-.742-.66-.504-1.029.31-.479 1.265-.426 1.632.119.224.333.387.68.2 1.107-.255.584-.708 1.223-1.177 1.447-.492-.643-.535-1.036-.152-1.644zm5.734-.976c-.196.825-.69.423-1.006.638-.108-.313-.273-.613-.31-.94-.064-.563.28-.629.576-.722.194-.061.397-.112.576-.227.394-.254.644-.137.877.394.128.294.429.436.62.692.148.197.382.548.337.686-.125.395-.334.943-.58 1.025-.748.25-.962-.097-1.09-1.546zm-1.751-4.218l-.503.378c-.186.132-.349.289-.565.385-.144.065-.477.103-.527.05a6.908 6.908 0 0 1-.825-1.022c-.288-.446-.198-.58.511-1.056l-.432-.88c1.086-.053 1.15-.013 1.196.642l1.566-.438c-.145.761.301 1.401-.421 1.941zM141 51.07c1.003-.22 1.365.037 2 1.336-.78.411-1.054 1.411-.612 2.131.065.108.073.34-.003.379-.142.073-.458.118-.536.051-.246-.211-.558-.469-.592-.729-.137-1.038-.178-2.084-.257-3.167zm-18 67.64c.431-.285.812-.744 1.137-.708.608.067 1.19.41 1.767.673.079.036.109.279.09.417-.099.758-1.13 1.183-1.734.708-.398-.312-.767-.66-1.26-1.09zm5.781-5.71c-.258-.588-.4-1.013-.615-1.382-.382-.657-.041-1.075.39-1.31.38-.208 1.016-.434 1.252-.225.483.426-.075.926-.256 1.367-.2.486-.463.939-.771 1.55zm6.213 5.963c-.33.317.201 1.074-.824 1.036-.56-.021-1.331-1.017-1.14-1.534.076-.205.509-.453.794-.464.637-.024 1.243.534 1.17.962zM130.211 116c.597.463 1.068 1.068.597 1.66-.257.324-1.137.433-1.579.254-.496-.2-.195-.845.982-1.914zm-7.983 0c.663.466.984 1.849.62 3-.22-1.105-1.315-1.853-.62-3z" stroke="#231F20" stroke-width="2"/><path d="M130 118l.27-1c.732.026.763.36.715.68-.06.397-.577.255-.985.32zm-13-51.171l.333-.829.667.453-.852.547-.148-.171zM122.4 120l-.4-1.963.491-.037.509 1.972-.6.028zm12.58-3c-.007.795-.219 1.022-.98.998.087-.631.466-.889 1-.976l-.02-.022zm-3.98 5.45c-.287.188-.573.38-.866.55-.011.007-.138-.311-.134-.315.267-.24.541-.46.816-.685l.184.45z" stroke="#231F20" stroke-width="2"/><path d="M106.869 75.203a29.853 29.853 0 0 1-.236-.147l-.742 1.292c.062.035.124.07.184.106l.794-1.251m-6.86 14.956c-.697-.225-1.836.047-2.051.47l2.051-.47m7.946-16.479l-.804 1.828 1.318-1.16-.518-.665.425-1.057c-.862.385-2.628 2.546-2.84 3.665.248-.399.381-.674.57-.902.54-.654.88-1.53 1.85-1.709m28.836-28.03c.203-.143.41-.282.607-.432.274-.207.489-.246.59.165.016.068.064.158.12.182.887.375.904.414.526 1.299-.023.054-.03.115-.064.24h.592c.289.611.208 1.122-.42 1.276-.966.236-.981.953-1.151 1.663-.138.57-.346 1.125-.523 1.685-1 .177-.698 1.066-.927 1.67-.086.227-.24.429-.372.66-.915-.958-1.504-2.008-.99-3.42a7.18 7.18 0 0 0-.211-.02l-.346.565c-.5-.282-.483-1.368-1.519-1.162l-.448-.841.16-.096-.53-.46c-.217 1.107.091 1.683.962 1.77.182.727.182.727-.513 1.313.208 1.065.552 2.106.56 3.149.004.583.09 1.226-.162 1.87-.18.459.001 1.17.25 1.651.248.482.412.877.205 1.386-.026.064.024.158.056.328.215-.09.425-.127.566-.244.456-.377.632-.074.76.297.079.232.034.522.154.722.182.302.428.588.705.806.253.198.607.268.868.458.083.061.089.4.003.487-.297.302-.649.55-.985.823.012.068.004.164.036.18.671.34 1.32.774 2.033.962.352.092.443.249.489.468.033.16-.057.445-.183.516-.156.089-.43.075-.61 0-.312-.13-.595-.335-.886-.519-.692-.435-1.418-.826-2.06-1.327-.998-.781-2.017-.557-3.066-.21-.423.14-.842.288-1.343.46l-.183 1.513c-.197-.06-.326-.108-.46-.142-1.027-.257-1.404-.716-1.435-1.792-.017-.555-.003-1.111-.152-1.714l-.926 2.205-.246.263-.216-.67c-.53.9.682 1.28.38 2.102l-2.104.364-.608-2.13c-.714.085-1.459.234-2.067-.44.112.302.217.608.34.905.294.712-.045 1.792-.727 2.094-.198.089-.557.035-.738-.097-.468-.339-.91-.414-1.455-.206-.185.071-.557.009-.664-.13-.872-1.13-1.355-1.282-2.729-.711-.398.165-.737.345-.98.823-.283.554-.893.943-1.357 1.405-.116.115-.295.226-.321.362-.162.869-.772 1.444-1.296 2.084-.18.222-.26.54-.464.728-.387.354-.839.909-1.25.897-.567-.015-.808.28-1.207.52.299.154.536.317.799.395.15.045.407.01.502-.093.804-.86 1.615-1.718 2.354-2.633.526-.652 1.105-.994 1.75-.763.242.087.43.32.657.499.057-.051.175-.159.295-.263.013-.012.04-.01.04-.01.402.276.806.526 1.176.818.128.101.284.367.237.46-.384.739.28 1.007.622 1.386.223.248.509.372.298.802-.08.163.09.45.155.708.219-.021.427-.024.627-.063.354-.069.521-.203.391-.641-.208-.7-.099-.822.633-.99.525-.12 1.051-.231 1.583-.31.147-.022.336.05.468.137 1.01.663 2.028 1.316 2.99 2.042.147.11.021.582.021.925l.503.62-.145.178c-.495-.579-1.003-.443-1.512-.083 1.13 2.129 2.165 2.328 3.825.711-.29-.18-.643-.304-.853-.55-.458-.535-.66-1.103-.452-1.894.174-.667-.036-1.436-.077-2.161-1.037.128-1.673-.131-1.806-.797-.038-.192.135-.527.31-.636.32-.198.731-.83.713-1.215-.01-.24.009-.553.152-.703.109-.114.433-.023.711-.023.137-.409.442-.582.987-.382.181.066.487-.054.673-.18.374-.259.689-.217.828.21.14.427.521.834.162 1.335-.026.035.105.24.205.293.172.093.375.13.454.155.193-.259.32-.592.553-.705.421-.204.386-.495.319-.83-.098-.485.138-.756.626-.802.185-.018.398-.17.52-.323.474-.587.658-.64 1.218-.206.842.654 1.804.843 2.846.832.404-.004.816.116 1.213.22.46.12.805.301.565.92-.169.434.176.597.56.59.432-.008.865-.06 1.298-.086.502-.028.784-.372.59-.827-.125-.296-.273-.551.075-.734.347-.182.777-.386 1.086.009.349.445.609.958.9 1.445.041.068.023.173.068.235.324.44.29.77-.328.927.075.166.105.318.195.413.758.808 1.123 1.828 1.61 2.791.419.83.927 1.665 1.96 2.18-.082-.326-.137-.545-.195-.764-.09-.336-.403-.692.128-.97.05-.027-.046-.369-.104-.555-.25-.813.107-1.775.875-2.239 1.212.95 2.445 1.903 3.66 2.877 2.005 1.605 3.985 3.24 6.005 4.826.465.365.37.853.462 1.292.11.525.105 1.074.141 1.614.049.736.029 1.45-.446 2.086-.21.28-.392.61-.478.945-.273 1.067-1.08 1.256-2.014 1.454-1.02.216-1.994.648-3 .99.158.754.327 1.35.398 1.957.139 1.174.326 2.355.306 3.53-.043 2.401.564 4.802-.106 7.212-.22.79-.017 1.69-.105 2.528-.102.98.498 1.793.54 2.73.017.405.012.749-.458.883-.436.125-.865.279-1.308.377-.998.225-1.484.814-1.512 1.829-.015.52-.036 1.02.294 1.477.094.13.066.346.099.541l-.862.196c.061-.282.108-.49.157-.712l-.95.283-.002-.136c-.265.225-.507.488-.8.667-.676.409-1.388.756-2.062 1.168-.605.368-1.192.767-1.168 1.618.006.179-.168.362-.114.481l.721 2.443c.622.134 1.285.343 1.96.395.357.028.744-.198 1.102-.345.508-.21.767-.035 1.01.442.288.562.703 1.06 1.047 1.597.13.205.295.431.31.658.041.635.014 1.276.014 1.895-.073.04-.112.078-.145.075-1.072-.104-1.996.19-2.789.94-.158.149-.463.19-.702.197-.734.024-1.472.055-2.202 0-1.594-.121-3.069.375-4.57.767-.82.213-1.67.318-2.482.556-1.306.384-2.585.862-3.887 1.26-2.473.757-4.787 1.866-7.052 3.093-.348.188-.654.497-1.021.602-2.585.74-4.889 2.243-7.55 2.758-.61.117-1.257.068-1.858.215-1.123.277-2.224.639-3.333.97-.828.247-1.655.501-2.51.761-.274-.874-.608-1.673-.075-2.5.067-.103.135-.25.232-.28.857-.273 1.723-.518 2.584-.781.566-.172 1.164-.29 1.68-.56.442-.231.79-.276 1.208-.011.707.448 2.024.092 2.52-.607.274-.382.639-.498 1.198-.525 1.047-.05 2.157.18 3.15-.594 1.312-1.023 2.767-1.86 4.152-2.79.466-.313.933-.326 1.484-.254 1.31.17 2.506-.208 3.609-.935.339-.223.761-.316 1.137-.487.497-.226.99-.461 1.478-.707.69-.346 1.192-.892 1.612-1.527.06-.09.214-.118.367-.198.11-.81.142-.83 1.048-.74.774.078 1.472-.045 1.995-.706.192-.242.447-.434.69-.666l.342.326c.05-.018.078-.02.085-.034.22-.423.459-.837.65-1.273.227-.513.862-.694 1.472-.385.345.175.47.742.199 1.128-.5.71-.223 1.324.174 1.954.621-.034.415-.5.425-.819.022-.671.007-1.344.007-2.094-.188-.264-.92-.23-.737-.873.062-.222.334-.384.503-.566l-.88-.315c.19-.664.415-1.353.567-2.058.03-.14-.183-.4-.347-.503-.714-.445-1.466-.832-2.18-1.28-.763-.479-1.488-1.02-2.251-1.5a277.01 277.01 0 0 0-4.73-2.922c-.177-.108-.448-.062-.755-.095l-.1-.265c-.438.452-.766.17-1.093-.23-.152.709-.603.643-1.074.554-.023.743-.462 1.034-1.21.893a2.283 2.283 0 0 0-1.154.099c-.394.143-.699.08-.86-.236-.137-.264-.137-.613-.14-.925-.001-.145.131-.292.208-.447-.187.015-.381.089-.527.033-.573-.222-.697.117-.736.553-.077.882-.609 1.188-1.472.86-.144-.055-.33-.003-.494-.002h-.925c.201.387.44.878.712 1.349.215.37.132.655-.223.82-.377.174-.581.801-.999.553-.314.134-.548.188-.722.32-.239.182-.535.387-.626.645-.233.667-.905.862-1.297 1.344-.079.097-.214.177-.237.284-.175.788-.26.85-1.074.72-.136-.023-.278-.004-.503-.004a6022.23 6022.23 0 0 0 2.064 3.372c-1.003.09-1.786.433-2.385 1.245l2.706-.237c.602 1.779 1.205 3.534 1.788 5.297.133.404-.39 1.304-.864 1.46-.885.289-1.774.579-2.683.761-.33.066-.767-.102-1.075-.293-.484-.3-.9-.708-1.383-1.103.1-.305.27-.484.63-.145.119.114.24.252.388.306.154.057.417.1.492.019.092-.1.095-.356.036-.504-.152-.382-.36-.74-.583-1.186l-2.262.782.3.919c-1.013.482-1.813-.162-2.675-.316-.465-.082-.868-.269-1.37-.016-.266.134-.683-.052-1.032-.059-.818-.013-1.636-.004-2.454-.004l-.016.192 3.24.264c.088.427.192.936.318 1.559-3.667.173-7.216.487-10.563 1.335-.357-.065-.615-.16-.867-.148-.824.04-1.652.205-2.466.151-.522-.033-1.023-.368-1.534-.566-.134-.052-.267-.106-.406-.14-.948-.228-1.3-1.277-.54-1.883.417-.334.969-.68 1.669-.487.999.274 2.03.428 3.07.602-.37-.259-1.096-.126-.977-.824-.293.03-.6.137-.865.071-.381-.093-1.149-.015-.599-.837.046-.067-.126-.279-.162-.354l.425-1.009-.182.161c-.114-.201-.257-.39-.337-.604-.428-1.152-1.478-1.696-2.422-2.224-.81-.452-1.817-.568-2.748-.781-.707-.162-1.186-.554-1.679-1.08-1.085-1.158-1.415-2.57-1.511-4.038-.05-.76.19-1.548.363-2.308.105-.46.354-.885.495-1.34.068-.217.033-.467.047-.79l.352-.056c-.07-.772.45-1.38 1.122-1.303-.417-.715.366-.857.576-1.322l.365.277.54-.887-.24-.286c.008-.067 0-.12.021-.146.372-.426.74-.854 1.125-1.268.15-.16.264-.479.596-.202.043.035.336-.1.369-.202.324-.984.887-1.215 1.803-.716l-.112-1.602c-.071.062-.188.149-.285.254-.098.107-.167.24-.265.346-.18.196-.34.444-.565.56-.855.441-1.401.086-1.443-.88-.013-.32-.097-.637-.148-.951.578-.01.433-.084.716 1.606.278-.134.634-.192.782-.4.306-.424 0-.732-.345-1.01-.367-.295-.763-.59-1.028-.968-.52-.738-.421-1.166.276-1.73.302-.244.615-.472.97-.745l.091.584c.243-.162.587-.211.233-.568-.033-.033-.042-.137-.015-.176.253-.372.518-.734.777-1.102.068-.097.133-.197.184-.303.272-.556.648-1.093.77-1.682.09-.425.174-.81.46-1.118.433-.468.892-.914 1.358-1.35.094-.086.317-.164.4-.114.767.464 1.542-.094 2.326.035.546.09 1.122.433 1.127 1 .353-.367.34-.458.07-.829-.116-.16-.238-.494-.163-.583.188-.22.489-.344.862-.582.104-1.255.794-2.509 1.407-3.794.21-.437.42-.913.449-1.382.022-.371-.283-.75-.357-1.14-.23-1.227.051-2.403.646-3.454.633-1.116 1.422-2.143 2.14-3.212.088-.133.152-.282.186-.453l-2.548 3.1-.193-.144c.287-1.213 1.274-2.027 1.847-3.202-.19.11-.37.157-.456.274-.79 1.07-1.515 2.189-2.356 3.217-.874 1.072-.893 2.249-.744 3.52.23 1.962-.337 3.812-.918 5.653-.31.98-1.152 1.097-1.98 1.193-.706.083-1.43.038-2.124.164-.353.065-.706.334-.973.597-.368.363-.646.815-.984 1.21-.076.09-.28.183-.359.143-.518-.26-.407.125-.42.45-.409-.053-.84-.029-1.203-.174-.573-.228-1.026-1.226-.89-1.828.23-1.014.253-2.051.398-3.073.049-.338.252-.653.381-.98.03-.076.086-.179.059-.237-.316-.678.119-1.284.18-1.924.069-.718.261-1.423.344-2.14.087-.745.025-1.515.18-2.242.155-.733-.028-1.596.683-2.17.078-.064.028-.277.049-.42.024-.16 0-.381.097-.47.704-.654.819-1.626 1.327-2.384a45.04 45.04 0 0 0 1.273-2.049 590.57 590.57 0 0 0 2.97-5.022c.184-.315.51-.629.138-1.052-.082-.092-.012-.319-.012-.524l.68.036c.602-1.192 1.206-2.405 1.826-3.609.33-.638.585-1.358 1.062-1.864.412-.436.28-1.002.615-1.394.18-.209.432-.35.633-.544.128-.123.259-.27.322-.431.437-1.112.89-2.22 1.263-3.353.14-.421.077-.908.103-1.283l-1.341-.382-.206.328v-.68l1.161-.178-.154.564.12.087c.072-.102.144-.203.213-.306.117-.173.236-.346.349-.522.102-.16.237-.314.28-.489.049-.196.012-.413.012-.7l.437.195c1.072-1.296 1.67-2.83 2.06-4.47.18-.755.518-1.434 1.286-1.8.1-.049.157-.227.199-.356.52-1.653 1.054-3.301 1.541-4.964.429-1.462.802-2.94 1.217-4.478l10.027 3.858.51-.462c.324-.677.563-1.25.877-1.78.078-.129.401-.113.733-.195l-.409.91c1.077-.5 1.433.79 2.44.74.084.61.11 1.254.279 1.858.09.33.365.692.66.866.493.292 1.064.457 1.612.65.298.107.604.423.934.025.033-.042.198.005.293.037 1.86.637 3.72 1.277 5.58 1.919.057.02.108.057.198.106-.141.378-.281.755-.419 1.135-.079.229-.2.45-.23.683-.04.301-.026.58-.464.554-.083-.004-.194.178-.263.292-.287.47-.562.948-.86 1.457.124.05.278.11.425.17.477-.662.51-1.587 1.358-1.96.073-.033.107-.227.104-.344-.01-.29-.053-.58-.082-.87m-79.799 69.933c.074-.393.09-.74-.434-.745-.384-.004-.572-.268-.58-.593-.025-1.08-.014-2.16-.006-3.24 0-.097.047-.208.107-.286.57-.75 1.124-1.51 1.728-2.231a4.04 4.04 0 0 1 .997-.86 6.998 6.998 0 0 1 1.462-.636c.09-.029.292.292.484.495-.015.006.144-.01.195-.093.443-.715.708-.226 1.06.103.206.193.565.42.783.362.456-.12.755.102 1.1.261.527.243 1.04.527 1.582.728.172.063.423-.085.638-.133l1.388-.31c.948-.21 1.844-.808 2.878-.385.093.038.218.05.274.117.451.55.795.121 1.205-.08.845-.415 1.687-.894 2.588-1.116.847-.208 1.777-.056 2.652-.185.551-.08 1.054-.448 1.605-.577.805-.187 1.633-.278 2.45-.01.02.005.056.015.056.022-.025.606.727.562.862 1.002.14.458.233.939.278 1.416.106 1.162.077 2.345.293 3.485.12.637.638 1.194.937 1.805.097.196.07.451.115.805.581.99.91 2.36 2.31 2.888-.43 1.101-.82 2.127-1.233 3.142-.081.197-.221.42-.398.52-.741.417-1.186 1.096-1.72 1.72-.792.929-1.733 1.731-2.591 2.606a48.202 48.202 0 0 0-2.06 2.203c-.451.523-.828 1.11-1.238 1.668-.025.033-.046.09-.076.096-1.032.174-.998 1.163-1.41 1.867-.581-.311-.823.092-1.089.495-.235.354-.315.929-.971.773-.031-.008-.084.022-.11.05-.7.743-1.698 1.14-2.232 2.101-.423.765-1.019 1.443-1.596 2.11-.16.184-.74.308-.764.264a4.071 4.071 0 0 1-.435-1.21c-.013-.076.425-.335.648-.327.867.028 1.037-.773 1.533-1.18.35-.29.298-.584.097-.922-.296-.5-.979-.721-1.494-.406-.552.337-.983.776-.949 1.512.028.602-.378 1.054-.97 1.247-.218.072-.457.23-.58.416-.585.887-1.419 1.385-2.413 1.688a1.238 1.238 0 0 0-.597.435c-.343.475-.73.773-1.361.747-.207-.008-.43.201-.634.33-.41.265-.757.502-1.346.394-.34-.064-.851.357-1.164.677-.435.446-.743 1.011-1.13 1.506-.264.338-.556.54-.982.152-.688-.63-1.465-.378-2.22-.129a.393.393 0 0 0-.213.215 3.722 3.722 0 0 1-.957 1.452c-.353.333-.437.958-1.116.903-.496-.04-1.003-.007-1.489-.093-.8-.143-1.428.178-1.908.721-.65.735-1.458.706-2.29.628-.213-.02-.508-.168-.596-.342-.34-.665-.674-1.345-.89-2.057-.296-.974.644-2.697 1.594-3.086.101-.04.185-.126.28-.186.242-.156.486-.31.764-.485-.53-.799-.21-1.708-.015-2.617.132-.61.145-1.171-.487-1.562-.116-.072-.211-.335-.174-.472.163-.606-.14-1.024-.519-1.49.292-.537.478-1.16 1.344-1.215.326-.02.643-.411.937-.664.348-.3.72-.594.987-.96.498-.686 1.164-.68 1.886-.597.414.048.832.092 1.247.084.37-.008.947-.84.94-1.4-.014-1.048.276-1.977.835-2.87.194-.31.085-.795.164-1.19.097-.492.254-.973.37-1.462.061-.258.185-.548.121-.78-.236-.859.249-1.439.69-2.055.214-.298.456-.597.585-.933.115-.304.115-.57-.124-.962-.34-.556-1.094-1.042-.781-1.917.092-.257-.028-.581.026-.86.053-.275.182-.738.316-.753.328-.035.817-.133.951.45" fill="#FEFEFE"/><path d="M126.38 117.229c.138-.08.372-.14.397-.243.169-.694.293-1.398.438-2.135h.961l-.259.736c.268.34.606.527 1.082.168-.616-.664-.588-.818-.056-.959.228-.635.491-1.137.581-1.666.173-1.013 1.013-1.93.473-3.058-.117-.245-.018-.583-.018-1.063.43.367.685.619.978.822.186.128.429.183.645.272.079-.196.174-.388.23-.59.037-.136.02-.286.03-.513.178.084.386.119.408.2.174.629.344 1.262.45 1.903.072.445.002.927.642 1.117.021-.125.029-.182.041-.238l.175-.8c.271.151.678.243.787.465.315.642.56 1.302.43 2.072-.087.516.118 1.075.205 1.715-.639-.199-.632-.726-.818-1.083l-.31.597c-.098.187-.193.376-.29.563l.73.284c-.09.36-.349.815-.282 1.221.173 1.052-.757 1.788-.745 2.796.01.72-1.131 1.335-1.871 1.157-.29-.07-.626-.14-.9-.067-.379.102-.732.107-.753-.279-.013-.248.257-.62.506-.746.426-.215.982-.206 1.394-.437.271-.151.584-.599.527-.841-.123-.525.164-.835.381-1.146-.228-.173-.49-.29-.624-.488-.243-.354-.46-.653-.896-.88-.522-.275-.844-.364-1.171.168-.087.14-.225.25-.384.425l-.387-.577c-.113.482-.2.943-.33 1.396-.33 1.158-1.498 1.476-2.388.648-.162-.15-.261-.362-.389-.544l.38-.372m10.307-2.703l1.114-2.225c-.768.318-1.19 1.203-1.114 2.225zm-1.367 1.935l.127-.405.495.287c.137-.333.276-.673.457-1.109-.619.283-.83.1-.856-.526-.018-.423-.219-.846-.377-1.254-.332-.854-.18-1.32.583-1.76.181-.104.346-.246.497-.395.398-.387.788-.387 1.232-.063.473.344.943.74 1.475.94.768.29.968.982 1.326 1.583.143.24.299.483.495.676.285.28.31.562.023.805-.772.651-1.566 1.275-2.352 1.908-.115.092-.249.16-.353.26-.589.57-1.52.794-2.196.377-.212-.132-.341-.674-.27-.967.104-.428-.147-.32-.324-.377l.018.02z" fill="#FEFEFE"/><path d="M124 114.718l.486-.587v-.704c-.84.004-.13-.631-.24-.792.283-.274.538-.498.768-.751.367-.401.777-.104 1.167-.133.161-.01.323-.022.486-.034-.004-.073-.008-.146-.01-.22h-1.728c.278-.807.309-1.64 1.122-1.913.297-.1.577-.294.846-.482.312-.221.5-.048.725.192.225.24.33.455.145.778-.157.276-.327.547-.45.843-.09.214-.11.468-.16.705l-.104.47.947 1.224-3.85 1.686-.15-.282m-6-45.844c.116-.482.226-.982.358-1.477.108-.401.567-.535.87-.23.365.368.814.507 1.283.695.775.31 1.477.808 1.489 1.917-1.469.312-2.88.498-4-.905m22.614-13.898c.632.7.52 1.377-.577 2.024-.418-.592-.835-1.17-1.238-1.752a5.675 5.675 0 0 1-.468-.766c-.085-.18-.215-.451-.11-.567.571-.632.057-1.14-.176-1.712-.12-.295.026-.676.151-.995.042-.105.39-.14.599-.208.067.141.174.28.193.424.08.623.048 1.232 1.082 1.518.303.083.428.662.527 1.031.084.323.017.668.017 1.003" fill="#FEFEFE"/><path d="M121 115.804c.226-.557.319-1.193.713-1.65.414-.482 1.109-.802 1.714-1.154.024-.013.556.38.57.596.029.474-.119.955-.204 1.433-.014.081-.054.204-.119.224-.849.258-1.705.5-2.559.747l-.115-.196zm1.59 6.553c-.46-.033-.742-.66-.504-1.03.31-.479 1.265-.426 1.632.118.224.334.387.68.2 1.108-.255.584-.708 1.224-1.177 1.447-.492-.643-.535-1.036-.152-1.643m5.735-.977c-.196.825-.69.423-1.006.637-.108-.312-.273-.612-.31-.94-.064-.562.28-.628.576-.722.194-.06.397-.112.576-.227.394-.253.644-.136.877.395.128.293.429.436.62.693.148.197.382.547.337.685-.125.395-.334.942-.58 1.025-.748.25-.962-.098-1.09-1.546m-1.751-4.217l-.503.378c-.186.13-.349.288-.565.385-.144.064-.477.101-.527.05a6.905 6.905 0 0 1-.825-1.023c-.288-.446-.198-.58.511-1.055l-.432-.882c1.086-.052 1.15-.011 1.196.644.431-.122.903-.254 1.566-.439-.145.761.301 1.402-.421 1.942M141 51.07c1.003-.22 1.365.037 2 1.336-.78.411-1.054 1.411-.612 2.131.065.108.073.34-.003.379-.142.073-.458.118-.536.051-.246-.211-.558-.469-.592-.729-.137-1.038-.178-2.084-.257-3.167m-18 67.639c.431-.285.812-.744 1.137-.708.608.067 1.19.41 1.767.673.079.037.109.28.09.417-.099.759-1.13 1.183-1.734.708-.398-.313-.767-.66-1.26-1.09m5.781-5.71c-.258-.588-.4-1.012-.615-1.382-.382-.657-.041-1.075.39-1.31.38-.208 1.016-.434 1.252-.225.483.426-.075.926-.256 1.367-.2.487-.463.94-.771 1.55m6.213 5.963c-.33.316.201 1.074-.824 1.036-.56-.022-1.331-1.018-1.14-1.534.076-.205.509-.453.794-.464.637-.024 1.243.534 1.17.962M130.211 116c.597.463 1.068 1.068.597 1.661-.257.323-1.137.432-1.579.253-.496-.2-.195-.845.982-1.914m-7.983 0c.663.466.984 1.849.62 3-.22-1.105-1.315-1.853-.62-3" fill="#FEFEFE"/><path d="M130 118l.27-1c.732.026.763.36.715.68-.06.397-.577.255-.985.32m-13-51.171l.333-.829.667.453-.852.547-.148-.171M122.4 120l-.4-1.963.491-.037.509 1.971-.6.029m12.58-3c-.007.795-.219 1.022-.98.998.087-.631.466-.889 1-.975l-.02-.023zm-3.98 5.45c-.287.187-.573.38-.866.55-.011.006-.138-.311-.134-.315.267-.239.541-.46.816-.685l.184.45" fill="#FEFEFE"/><path d="M175 103c0 40.317-32.907 73-73.5 73S28 143.317 28 103s32.907-73 73.5-73S175 62.683 175 103z" stroke="#202020" stroke-width="4"/><path fill="#202020" d="M32 68.984L28.717 77l-2.987-1.277 2.06-5.032-1.453-.622-1.871 4.571-2.776-1.187 1.872-4.57-1.452-.621-2.123 5.181L17 72.165 20.344 64zM28 79.09L27.133 82 15 77.91l.867-2.91zm-8.84 8.138c.772.206 1.506-.175 1.659-.952.177-.9-.22-1.552-1.092-1.93l-.567 2.882zm-1.085-3.34c-.963-.177-1.74.161-1.926 1.106-.095.488-.007 1.073.346 1.424l-.553 2.82c-1.68-1.09-2.19-2.976-1.836-4.775.497-2.53 2.446-4.015 5.226-3.27 2.426.648 4.072 2.853 3.581 5.354-.617 3.14-2.73 4.002-5.976 3.135l1.138-5.794zm-.667 12.409c.348.015.638-.05.839-.214.2-.15.324-.38.357-.682.12-1.09-.946-1.385-1.98-1.515-1.035-.13-2.12-.107-2.239.982-.068.617.46 1.12 1.127 1.262l-.297 2.711c-2.285-.565-3.408-2.32-3.188-4.328.246-2.238 2.215-3.806 4.908-3.467 2.693.34 4.285 2.359 4.04 4.597-.214 1.95-1.496 3.475-3.863 3.35l.296-2.696zm3.768 8.094L21.143 106l-2.133-.049.032-1.61-3.165-.072c-.84-.018-1.21.14-1.225.9-.005.228.008.456.038.684l-2.623-.06c.012-.607-.079-1.293-.066-1.93.026-1.276.281-2.683 2.765-2.626l4.337.099.027-1.336 2.134.049-.027 1.336 2.763.063-.061 3.006-2.763-.063zm.319 3.609l.162 2.785-1.359.096.002.029c1.042.398 1.634.974 1.696 2.03.017.292-.016.574-.082.859L19.05 114c.097-.301.18-.572.146-1.158-.067-1.144-.855-1.706-2.672-1.578l-3.356.236-.168-2.902 8.495-.598zm2.054 9.744l-.409-2.44 2.451-.304.409 2.44-2.451.304zm-1.396-2.318l.409 2.44L13.409 119 13 116.56l9.153-1.134zm-1.413 9.391c.332-.114.583-.28.719-.503.139-.21.181-.468.114-.756-.243-1.042-1.34-.92-2.355-.662s-2.026.677-1.784 1.719c.138.589.797.856 1.47.743l.603 2.59c-2.33.32-3.958-.877-4.404-2.797-.499-2.138.842-4.295 3.483-4.97 2.641-.673 4.795.593 5.293 2.73.434 1.866-.274 3.731-2.54 4.483l-.6-2.577zm1.267 9.163c-.313-.23-.562-.527-.793-.829-.382-.49-.675-.713-1.242-.51a.805.805 0 0 0-.468 1.051c.224.562.836.842 1.726.565l.777-.278zm-.947 3.048c-.632.226-1.335.506-1.76.972l-1.007-2.519c.202-.143.527-.303.758-.371l-.01-.026c-.986-.245-1.517-.924-1.836-1.723-.499-1.247-.135-2.56 1.63-3.192 2.657-.952 3.518 1.477 4.329 2.626.215.308.48.598 1.014.406.568-.203.614-.69.454-1.089-.304-.76-.866-.73-1.227-.615l-.918-2.295c2.395-.772 3.472.81 4.085 2.344 1.237 3.092-.442 3.665-2.062 4.245l-3.45 1.237zM31.711 135L33 137.529 21.289 143 20 140.47zm9.476 23.203c.3-.349 1.14-1.494.308-2.491-.943-1.129-2.54-.319-3.784.807-1.244 1.125-2.237 2.659-1.295 3.788.678.81 1.617.52 2.605-.124l1.977 2.367c-1.866 1.687-4.919 2.199-6.832-.091-2.115-2.532-1.203-5.877 1.53-8.351 2.915-2.637 6.145-2.827 8.16-.417 1.78 2.16 1.436 4.55-.71 6.857l-1.959-2.345zm5.769 6.624c-.815-.675-1.753.187-2.377.904-.624.717-1.356 1.771-.54 2.446.815.675 1.764-.2 2.388-.917.624-.717 1.345-1.758.53-2.433m-4.554 5.227c-2.12-1.755-1.612-4.228.024-6.105 1.634-1.877 4.044-2.754 6.164-.999s1.624 4.215-.011 6.092c-1.635 1.877-4.057 2.767-6.177 1.012M52.673 167l2.188 1.49-.595.99.023.016c.892-.492 1.743-.484 2.647.132 1.065.725 1.526 2.243.454 4.029L54.185 179l-2.268-1.544 2.449-4.082c.54-.9.838-1.586.174-2.037-.39-.266-1.058-.362-1.805.884l-2.467 4.112L48 174.789 52.673 167zm12.017 6.869l1.31.696-.922 1.982-1.309-.695-1.367 2.94c-.363.781-.386 1.195.232 1.523.185.098.378.181.579.247L62.079 183c-.494-.262-1.095-.46-1.614-.737-1.037-.551-2.088-1.373-1.015-3.681l1.873-4.031-1.087-.578.922-1.983 1.087.578L63.44 170l2.446 1.3-1.194 2.569zM67.496 175l2.625.945-.56 1.282.028.01c.86-.798 1.67-1.114 2.664-.756.276.1.518.24.747.412l-1.179 2.703c-.229-.208-.437-.39-.99-.59-1.077-.387-1.967.114-2.715 1.828L66.735 184 64 183.015 67.496 175zm9.985 8.376c-.397.103-.812.114-1.221.108-.669-.006-1.047.085-1.222.657-.12.39.124.883.63 1.02.633.174 1.26-.132 1.573-1.002l.24-.783zm2.084 2.639c-.196.636-.388 1.362-.244 1.985l-2.839-.777c0-.247.063-.601.147-.825l-.028-.008c-.83.621-1.758.616-2.657.37-1.405-.384-2.331-1.487-1.785-3.265.822-2.676 3.49-1.841 5.004-1.763.405.022.824-.005.989-.543.176-.571-.223-.91-.672-1.033-.858-.234-1.182.226-1.306.58l-2.585-.706c.816-2.36 2.874-2.221 4.603-1.749 3.485.954 2.941 2.626 2.44 4.257l-1.067 3.477zm7.757-1.353c.037-.347-.007-.641-.156-.852-.134-.208-.354-.346-.65-.397-1.068-.183-1.43.866-1.627 1.893-.198 1.026-.247 2.111.822 2.295.604.103 1.135-.395 1.32-1.054l2.658.455c-.71 2.252-2.518 3.271-4.486 2.935-2.193-.376-3.612-2.436-3.097-5.108.514-2.671 2.613-4.147 4.806-3.771 1.911.326 3.333 1.697 3.053 4.056l-2.643-.452zm9.114-2.69l1.564.142-.214 2.089-1.565-.142-.318 3.098c-.084.822.042 1.197.78 1.264a4.4 4.4 0 0 0 .67.009L97.089 191c-.59-.054-1.265-.011-1.885-.068-1.24-.113-2.59-.46-2.34-2.891l.435-4.246-1.299-.119.214-2.089 1.299.118.278-2.705 2.922.266-.277 2.706zm6.594 3.406c-1.06-.013-1.218 1.19-1.231 2.098-.013.909.111 2.133 1.17 2.146 1.061.014 1.22-1.207 1.233-2.114.012-.909-.111-2.116-1.172-2.13m-.094 6.622c-2.756-.035-3.97-2.181-3.935-4.56.034-2.377 1.307-4.474 4.064-4.44 2.755.036 3.969 2.165 3.934 4.543-.033 2.378-1.307 4.492-4.063 4.457m6.064-9.459l2.773-.182.108 1.353.03-.002c.385-1.041.955-1.635 2.006-1.705.291-.018.573.013.857.075l.226 2.853c-.3-.094-.571-.176-1.155-.137-1.139.075-1.692.864-1.549 2.674l.267 3.34-2.89.19-.673-8.459zm11.602 1.052a.882.882 0 0 0-.44-.587.949.949 0 0 0-.675-.152c-.402.059-.847.223-.751.777.042.244.234.333.406.39.514.16 1.603.068 2.614.288 1.008.203 1.951.717 2.19 2.1.401 2.345-1.474 3.268-3.287 3.531-1.754.255-3.818-.262-4.236-2.436l2.719-.396c.064.291.22.519.473.699.169.125.459.183.804.133.374-.054.936-.303.852-.791-.084-.488-.353-.599-1.721-.667-2.245-.107-3.256-.762-3.505-2.21-.366-2.132 1.567-2.98 3.063-3.198 1.61-.234 3.638-.012 4.082 2.142l-2.588.377zm20.809-4.61l-2.356-3.3-.025.012.688 4.133 1.693-.845zM136 172.344l2.697-1.344L147 181.384l-2.86 1.426-1.096-1.528-2.848 1.42.32 1.915-2.772 1.383L136 172.344zm14.174.172a.926.926 0 0 0-.65-.351.889.889 0 0 0-.654.135c-.321.216-.63.544-.294 1.005.149.203.356.205.532.188.518-.064 1.419-.588 2.394-.799.967-.223 2.018-.142 2.859 1.009 1.424 1.95.225 3.542-1.223 4.513-1.402.94-3.426 1.31-4.786-.483l2.172-1.456c.19.236.43.377.73.438.205.045.482-.02.758-.205.298-.2.67-.652.374-1.058-.297-.406-.58-.398-1.796.094-1.992.812-3.168.632-4.048-.574-1.296-1.774-.012-3.321 1.183-4.123 1.286-.863 3.144-1.483 4.517.28l-2.068 1.387zm7.754-5.976a.894.894 0 0 0-.675-.272.843.843 0 0 0-.614.22c-.282.257-.537.625-.151 1.045.17.186.37.162.539.122.491-.13 1.293-.769 2.209-1.105.903-.347 1.931-.397 2.896.653 1.634 1.78.685 3.53-.586 4.688-1.23 1.121-3.138 1.748-4.689.119l1.906-1.737c.215.213.465.325.764.347.204.02.463-.08.705-.301.262-.24.562-.74.222-1.11-.34-.371-.614-.326-1.724.322-1.818 1.067-2.978 1.034-3.988-.066-1.487-1.619-.45-3.335.598-4.29 1.13-1.03 2.844-1.888 4.403-.29l-1.815 1.655zm5.91-6.51c-.682.808.171 1.752.884 2.382.712.63 1.762 1.37 2.445.563.682-.808-.185-1.764-.898-2.394-.712-.63-1.749-1.358-2.431-.55m5.194 4.593c-1.775 2.1-4.247 1.57-6.112-.08-1.866-1.649-2.723-4.063-.947-6.163 1.774-2.1 4.234-1.582 6.099.067 1.864 1.65 2.735 4.076.96 6.176m2.175-12.659c-.313-.191-.608-.28-.866-.237-.25.034-.47.177-.636.432-.601.92.243 1.732 1.132 2.379.89.647 1.894 1.182 2.495.26.34-.52.084-1.244-.463-1.713l1.495-2.29c1.84 1.679 2.076 3.835.969 5.531-1.235 1.89-3.747 2.296-6.062.61-2.315-1.685-2.864-4.318-1.63-6.208 1.076-1.648 2.94-2.365 5.053-1.041l-1.487 2.277zm-.307-6.668l1.38-2.53 7.72 4.703-1.38 2.53-7.72-4.703zm.547-3.038l-1.38 2.53L168 143.53l1.38-2.53 2.067 1.26zm8.411-2.551c.045.385-.011.77-.083 1.15-.115.618-.08.983.491 1.237.391.174.946.026 1.172-.421.283-.559.063-1.189-.798-1.618l-.782-.348zm3.1-1.51c.636.282 1.366.576 2.042.543l-1.27 2.508a3.19 3.19 0 0 1-.842-.269l-.013.025c.518.87.362 1.728-.04 2.523-.628 1.241-1.933 1.924-3.709 1.133-2.672-1.19-1.367-3.53-1.042-4.921.089-.372.128-.765-.41-1.004-.57-.254-.989.061-1.19.459-.384.757.046 1.131.398 1.303l-1.157 2.284c-2.34-1.134-1.864-3.02-1.091-4.548 1.559-3.079 3.224-2.307 4.854-1.582l3.47 1.545zm-4.274-8.702l.542-1.496 2.062.788-.542 1.496 3.06 1.169c.812.31 1.224.29 1.48-.415.075-.212.136-.43.178-.654l2.536.969c-.204.564-.333 1.238-.548 1.83-.43 1.186-1.124 2.415-3.526 1.497l-4.192-1.602-.45 1.242-2.063-.788.45-1.242-2.671-1.021 1.014-2.794 2.67 1.02zm.643-2.982l.82-2.58L189 126.42l-.821 2.579-8.852-2.486zm-.135-2.848l-.82 2.58-2.372-.667.822-2.579 2.37.666zm4.23-5.669c-.205 1.149.948 1.589 1.837 1.805.89.216 2.114.353 2.32-.795.205-1.149-.964-1.593-1.854-1.81-.89-.215-2.097-.35-2.303.8m6.485 1.576c-.535 2.987-2.863 3.828-5.19 3.262-2.33-.566-4.158-2.417-3.623-5.404.534-2.987 2.846-3.832 5.174-3.266 2.33.566 4.174 2.42 3.639 5.408M183 112.11l.226-2.96 1.063.114.003-.031c-.795-.663-1.167-1.53-1.074-2.755.11-1.44 1.13-2.66 3.047-2.456l5.735.612-.234 3.067-4.382-.467c-.967-.103-1.652-.066-1.72.832-.04.528.18 1.254 1.517 1.396l4.414.47-.233 3.068-8.362-.89zM179.45 92l-.45-3.184L191.55 87l.45 3.184zm2.012-7l-.622-2.472 1.086-.255-.006-.027c-.976-.277-1.593-.857-1.85-1.88-.302-1.203.358-2.524 2.316-2.986l5.856-1.38.645 2.562-4.475 1.055c-.986.232-1.655.486-1.466 1.236.11.44.536.956 1.902.635l4.508-1.063.644 2.563L181.462 85zm-.281-15.208c-.318.17-.551.387-.66.65-.115.249-.128.536-.029.842.362 1.106 1.444.824 2.428.401.984-.422 1.946-1.018 1.585-2.125-.204-.626-.893-.828-1.552-.611l-.898-2.752c2.291-.669 4.052.418 4.717 2.456.741 2.271-.35 4.815-2.91 5.915-2.561 1.1-4.858.01-5.599-2.26-.646-1.98-.151-4.119 2.024-5.252l.894 2.736zM181.16 64L180 61.438 182.84 60l1.16 2.563zM63 20.62l4.153-1.34 3.975 7.651.034-.011-1.055-8.595L74.21 17 78 29.38l-2.634.85-2.951-9.64-.034.01 1.112 10.236-2.195.708-4.893-9.013-.034.01 2.951 9.641L66.79 33zm16-5.208L86.479 14l.442 2.588-4.436.838.464 2.721 4.166-.786.442 2.588-4.165.786.53 3.103 4.636-.875L89 27.55 81.322 29zm12-2.872l4.602-.2 2.026 8.77.037-.002 1.211-8.91 4.547-.198.577 13.46-2.919.126-.45-10.48h-.037l-1.59 10.57-2.431.107-2.602-10.387h-.037l.45 10.482-2.807.122zm19.696 5.171l.787.096c.994.122 1.468-.449 1.565-1.408.07-.696-.195-1.49-1.24-1.617l-.806-.098-.306 3.027zm-.582 5.736l.874.106c1.165.143 1.64-.618 1.736-1.558.134-1.316-.426-1.956-1.317-2.065l-.925-.113-.368 3.63zM108.361 12l4.47.547c2.09.254 3.37 1.496 3.143 3.734-.158 1.56-1.036 2.69-2.225 2.793l-.004.038c.892.26 2.202.859 1.923 3.604-.16 1.58-1.01 3.646-4.42 3.23L107 25.427 108.36 12zm11.644 2L127 15.878l-.572 2.49-4.15-1.114-.602 2.618 3.896 1.046-.573 2.49-3.895-1.046-.686 2.984 4.336 1.164-.573 2.49L117 27.072zm12.667 10.042l.888.34c1.163.442 1.816-.278 2.101-.969.366-.887.269-1.609-.876-2.046l-.872-.332-1.241 3.007zm-.83-6.042l4.82 1.839c2.443.933 2.684 2.699 2.02 4.309-.706 1.709-1.77 2.273-3.231 2.077l-.014.032c1.727.944 1.375 2.085.758 3.675-.905 2.337-.915 2.6-.572 2.92l-.061.148-3.093-1.18c-.06-.48.126-1.17.676-2.5.84-2.038.726-2.576-.18-2.922l-1.093-.417-2.001 4.847L127 29.733 131.843 18z"/><path d="M94.877 76.615c.058 3.272 3.544 5.175 6.507 5.175 3.834 0 6.74-2.617 6.74-6.662 0-4.046-2.325-6.842-6.392-6.842-2.789 0-4.88.654-6.449 3.153h-8.947L90.286 48h25.564v8.567H97.898l-1.51 7.555h.115c2.034-2.023 4.822-2.975 7.902-2.975 8.308 0 13.595 4.878 13.595 13.505C118 84.884 110.796 90 101.384 90 92.553 90 85.58 86.55 85 76.615h9.877zm-50.49 48.499h6.718c2.66 0 4.508-.97 4.508-3.697 0-2.911-1.983-3.882-4.508-3.882h-6.718v7.58zm0-13.125h6.492c1.443 0 3.427-.785 3.427-3.142 0-2.403-1.668-3.189-3.427-3.189h-6.492v6.331zM36 99.004h15.06c5.546-.093 11.632 1.386 11.632 8.272 0 2.958-1.713 5.36-4.238 6.655 3.427 1.016 5.546 4.066 5.546 7.81C64 129.596 58.364 132 51.465 132H36V99.004zm48 26.899c5.454 0 7.545-4.701 7.545-9.403 0-4.702-2.09-9.403-7.545-9.403s-7.546 4.701-7.546 9.403c0 4.702 2.091 9.403 7.546 9.403M84 100c10.227 0 16 7.318 16 16.5S94.227 133 84 133c-10.228 0-16-7.318-16-16.5S73.772 100 84 100m29.48 13.328h7.114c2.554 0 3.922-1.387 3.922-3.882 0-2.45-1.915-3.56-4.286-3.56h-6.75v7.442zM105 99h16.598c5.745 0 11.4 2.634 11.4 9.29 0 3.559-1.688 6.933-5.108 8.273v.092c3.466.833 4.468 4.76 4.742 7.904.091 1.386.228 6.24 1.368 7.441h-8.39c-.73-1.11-.866-4.345-.957-5.269-.228-3.327-.776-6.748-4.743-6.748h-6.43V132H105V99zm47 26.903c5.454 0 7.545-4.701 7.545-9.403 0-4.702-2.09-9.403-7.545-9.403s-7.546 4.701-7.546 9.403c0 4.702 2.091 9.403 7.546 9.403M152 100c10.227 0 16 7.318 16 16.5s-5.773 16.5-16 16.5c-10.228 0-16-7.318-16-16.5s5.772-16.5 16-16.5" fill="#1C2432"/></g></svg>